<?xml version="1.0" encoding="utf-8"?>
<!-- Generator: Adobe Illustrator 15.1.0, SVG Export Plug-In  -->
<!DOCTYPE svg PUBLIC "-//W3C//DTD SVG 1.1//EN" "http://www.w3.org/Graphics/SVG/1.1/DTD/svg11.dtd" [
	<!ENTITY ns_flows "http://ns.adobe.com/Flows/1.0/">
]>
<svg version="1.1"
	 xmlns="http://www.w3.org/2000/svg" xmlns:xlink="http://www.w3.org/1999/xlink" xmlns:a="http://ns.adobe.com/AdobeSVGViewerExtensions/3.0/"
	 x="0px" y="0px" width="101px" height="101px" viewBox="0 0 101 101" overflow="visible" enable-background="new 0 0 101 101"
	 xml:space="preserve">
<defs>
</defs>
<g>
	<defs>
		<rect id="SVGID_1_" width="100.796" height="100.796"/>
	</defs>
	<clipPath id="SVGID_2_">
		<use xlink:href="#SVGID_1_"  overflow="visible"/>
	</clipPath>
	<path clip-path="url(#SVGID_2_)" fill="#FFFFFF" d="M50.398,1C77.68,1,99.796,23.116,99.796,50.398
		c0,27.282-22.116,49.398-49.397,49.398C23.116,99.796,1,77.68,1,50.398C1,23.116,23.116,1,50.398,1"/>
	
		<circle clip-path="url(#SVGID_2_)" fill="none" stroke="#5A621C" stroke-width="2" stroke-miterlimit="10" cx="50.398" cy="50.398" r="49.398"/>
	<path clip-path="url(#SVGID_2_)" fill="#5A621C" d="M50.398,3.861c25.701,0,46.536,20.835,46.536,46.537
		c0,25.702-20.835,46.537-46.536,46.537c-25.703,0-46.538-20.835-46.538-46.537C3.861,24.696,24.696,3.861,50.398,3.861"/>
	<path clip-path="url(#SVGID_2_)" fill="#FFFFFF" d="M78.248,22.454L78.248,22.454c-0.332-0.315-1.812-1.625-2.925-1.268
		c-0.522,0.168-0.966,0.654-1.641,1.288c-2.746,2.583-11.975,12.044-14.068,14.256c-2.096,2.211-7.397,8.236-9.524,10.583
		c-2.127,2.347-5.043,5.557-6.345,6.932c-1.302,1.375-7.684,8.711-11.499,12.562c-3.815,3.852-9.078,9.592-9.793,10.087
		c-0.692,0.479-0.114,0.996,0.169,1.28c0.284,0.284,0.801,0.861,1.28,0.169c0.495-0.715,6.235-5.979,10.087-9.793
		c3.851-3.814,11.187-10.197,12.562-11.499s4.585-4.218,6.933-6.345c2.347-2.127,8.372-7.429,10.583-9.524
		c2.211-2.095,11.672-11.323,14.256-14.069c0.634-0.675,1.12-1.118,1.288-1.64c0.356-1.114-0.953-2.592-1.269-2.924
		c0,0-0.016-0.017-0.047-0.048C78.265,22.47,78.248,22.454,78.248,22.454"/>
	<path clip-path="url(#SVGID_2_)" fill="#FFFFFF" d="M21.685,76.861c-0.102,0.088-0.433,0.322-0.433,0.322
		c-0.182,0.183-0.148,0.459-0.027,0.688c0.132,0.25,0.114,0.273,0.767,0.932c0.658,0.653,0.682,0.636,0.932,0.768
		c0.228,0.119,0.505,0.154,0.688-0.027c0,0,0.234-0.331,0.323-0.433c0.169-0.195,0.102-0.427,0-0.66
		c-0.113-0.259-0.103-0.269-0.712-0.877c-0.61-0.61-0.618-0.602-0.877-0.712C22.104,76.757,21.88,76.693,21.685,76.861"/>
	<path clip-path="url(#SVGID_2_)" fill="#FFFFFF" d="M22.549,22.454L22.549,22.454c0.332-0.315,1.811-1.625,2.925-1.268
		c0.522,0.168,0.966,0.654,1.64,1.288c2.746,2.583,11.975,12.044,14.069,14.256c2.095,2.211,7.397,8.236,9.524,10.583
		c2.127,2.347,5.043,5.557,6.345,6.932s7.685,8.711,11.499,12.562c3.815,3.852,9.078,9.592,9.793,10.087
		c0.692,0.479,0.114,0.996-0.169,1.28c-0.284,0.284-0.801,0.861-1.28,0.169c-0.494-0.715-6.234-5.979-10.087-9.793
		c-3.851-3.814-11.187-10.197-12.562-11.499s-4.585-4.218-6.932-6.345s-8.372-7.429-10.583-9.524
		c-2.211-2.095-11.672-11.323-14.256-14.069c-0.634-0.675-1.12-1.118-1.288-1.64c-0.357-1.114,0.953-2.592,1.268-2.924
		c0,0,0.016-0.017,0.047-0.048C22.531,22.47,22.549,22.454,22.549,22.454"/>
	<path clip-path="url(#SVGID_2_)" fill="#FFFFFF" d="M79.111,76.861c0.102,0.088,0.433,0.322,0.433,0.322
		c0.182,0.183,0.148,0.459,0.027,0.688c-0.132,0.25-0.114,0.273-0.768,0.932c-0.657,0.653-0.682,0.636-0.932,0.768
		c-0.229,0.119-0.505,0.154-0.688-0.027c0,0-0.233-0.331-0.322-0.433c-0.169-0.195-0.103-0.427,0-0.66
		c0.112-0.259,0.103-0.269,0.712-0.877c0.609-0.61,0.618-0.602,0.877-0.712C78.693,76.757,78.916,76.693,79.111,76.861"/>
	<path clip-path="url(#SVGID_2_)" fill="#D35E13" d="M50.398,31.791c10.275,0,18.606,8.331,18.606,18.607
		s-8.331,18.607-18.606,18.607c-10.276,0-18.607-8.331-18.607-18.607S40.122,31.791,50.398,31.791"/>
	
		<circle clip-path="url(#SVGID_2_)" fill="none" stroke="#FFFFFF" stroke-width="2" stroke-miterlimit="10" cx="50.398" cy="50.398" r="18.607"/>
	<path clip-path="url(#SVGID_2_)" fill="#FFFFFF" d="M57.857,46.124c-0.71,0-1.843,0.149-3.197,2.368
		c-1.868,3.06-3.463,2.546-3.463,2.546c0.004-0.997,1.046-2.574,1.332-2.96c0.681-0.918,2.516-3,2.546-5.387
		c0.032-2.545-3.73-2.842-4.677-2.842c-0.03,0-0.063,0-0.099,0.001c-1.082,0.02-4.609,0.375-4.579,2.841
		c0.03,2.388,1.865,4.47,2.546,5.387c0.286,0.386,1.328,1.963,1.332,2.96c0,0-1.595,0.514-3.463-2.546
		c-1.355-2.219-2.486-2.368-3.197-2.368c-3.907,0-4.026,10.005,0.059,10.005c0.888,0,2.095-0.591,3.019-1.243
		c1.097-0.774,2.683-2.075,3.419-2.076c0.339,0,0.311,0.336,0.311,1.011c0,1.125-0.2,5.005-0.296,6.245
		c-0.042,0.55,0.149,0.854,0.849,0.879c0.032,0.001,0.064,0.003,0.099,0.003c0.781,0,0.991-0.308,0.946-0.882
		c-0.096-1.24-0.296-5.12-0.296-6.245c0-0.675-0.027-1.011,0.312-1.011c0.735,0.001,2.321,1.302,3.419,2.076
		c0.924,0.652,2.131,1.243,3.019,1.243C61.883,56.129,61.764,46.124,57.857,46.124"/>
</g>
</svg>
