<?xml version="1.0" encoding="utf-8"?>
<!-- Generator: Adobe Illustrator 15.1.0, SVG Export Plug-In  -->
<!DOCTYPE svg PUBLIC "-//W3C//DTD SVG 1.1//EN" "http://www.w3.org/Graphics/SVG/1.1/DTD/svg11.dtd" [
	<!ENTITY ns_flows "http://ns.adobe.com/Flows/1.0/">
]>
<svg version="1.1"
	 xmlns="http://www.w3.org/2000/svg" xmlns:xlink="http://www.w3.org/1999/xlink" xmlns:a="http://ns.adobe.com/AdobeSVGViewerExtensions/3.0/"
	 x="0px" y="0px" width="101px" height="101px" viewBox="0 0 101 101" overflow="visible" enable-background="new 0 0 101 101"
	 xml:space="preserve">
<defs>
</defs>
<g>
	<defs>
		<rect id="SVGID_1_" y="0" width="100.796" height="100.796"/>
	</defs>
	<clipPath id="SVGID_2_">
		<use xlink:href="#SVGID_1_"  overflow="visible"/>
	</clipPath>
	<path clip-path="url(#SVGID_2_)" fill="#FFFFFF" d="M99.796,50.398c0,27.282-22.115,49.398-49.397,49.398S1,77.68,1,50.398
		C1,23.116,23.116,1,50.398,1S99.796,23.116,99.796,50.398"/>
	
		<circle clip-path="url(#SVGID_2_)" fill="none" stroke="#286040" stroke-width="2" stroke-miterlimit="10" cx="50.398" cy="50.398" r="49.398"/>
	<path clip-path="url(#SVGID_2_)" fill="#286040" d="M96.935,50.398c0,25.701-20.835,46.537-46.537,46.537
		c-25.701,0-46.536-20.836-46.536-46.537c0-25.701,20.835-46.537,46.536-46.537C76.1,3.861,96.935,24.697,96.935,50.398"/>
	<path clip-path="url(#SVGID_2_)" fill="#C51A4A" d="M71.37,50.398c0,11.583-9.39,20.973-20.972,20.973
		c-11.583,0-20.973-9.39-20.973-20.973s9.39-20.972,20.973-20.972C61.98,29.426,71.37,38.815,71.37,50.398"/>
	
		<circle clip-path="url(#SVGID_2_)" fill="none" stroke="#FFFFFF" stroke-width="2" stroke-miterlimit="10" cx="50.398" cy="50.398" r="20.972"/>
	<path clip-path="url(#SVGID_2_)" fill="#FFFFFF" d="M64.72,43.185c0-1.05-2.713-1.342-2.684-1.75
		c0.029-0.408,1.935-2.014,1.896-2.508c-0.087-1.109-4.112,0.175-4.521-0.525c-0.211-0.361,0.991-1.634,0.991-1.809
		c0-0.175-1.604,0.088-2.565,1.08c-0.964,0.991-2.334,2.887-2.859,4.725c-0.525,1.837-1.283,5.395-2.188,5.424
		c-0.131,0.005-0.243,0.014-0.348,0.027c-0.552-0.023-1.027-0.039-1.344-0.172c-2.5-1.05-3.704-3.605-4.785-4.525
		c-0.722-1.085-1.805-2.241-2.434-2.869c-0.7-0.7-0.787-0.503-0.7-0.788c0.18-0.583,1.029,0.766,1.882-0.525
		c0.656-0.992-0.744-1.093-1.269-1.225c-0.525-0.131,0.109-1.181-0.678-1.268c-0.747-0.083-0.328,1.093-0.766,1.137
		c-0.437,0.044-0.131-1.225-0.875-1.225c-0.744,0-0.219,1.313-0.7,1.4c-0.481,0.088-0.175-1.006-0.744-0.831
		c-0.568,0.175,0.044,1.181-0.437,1.225c-0.481,0.044-0.543-0.735-0.744,0.044c-0.25,0.969,0.258,1.687,0.649,2.084
		c-0.476,0.188-0.991,0.755-0.955,1.503c0.35-0.233,1.219-0.672,1.468,0.098c-0.818,0.982-1.574,2.521-0.965,3.293
		c0.326,0.413,0.733,0.593,1.189,0.595c-0.731,2.411-0.959,5.589,0.627,8.352c1.663,2.897,3.661,4.545,5.801,5.473
		c0.479,1.026,1.14,2.045,2.099,2.508c-0.34,0.886-0.906,2.371-0.988,2.52c-0.109,0.197-0.372,0.634-1.29,0.743
		c-0.305,0.037-2.625,0.307-3.041,1.247c0.919-0.263,1.947-0.284,3.062-0.109c1.116,0.175,0.832,0.437,0.919,1.006
		c0.744-0.459,0.952-0.679,1.422-0.875c0.525-0.219,0.831-0.437,1.443-0.108c0.109-0.679-0.438-0.636-0.722-0.897
		c-0.244-0.225,0.72-2.303,1.275-3.315c1.048-0.199,1.678-0.861,2.345-1.727c2.227-0.337,3.958-1.683,4.315-4.846
		c0.876-0.077,1.717-0.438,2.346-1.269c0.904-1.195,0.35-2.713,0.642-3.209c0.291-0.495,2.246,0.963,2.392,0.38
		c0.146-0.584-1.75-2.713-1.43-3.354c0.158-0.315,3.063,0.409,3.093-0.262c0.028-0.671-2.101-2.333-2.101-2.859
		C62.444,44.673,64.72,44.235,64.72,43.185"/>
</g>
</svg>
