<?xml version="1.0" encoding="utf-8"?>
<!-- Generator: Adobe Illustrator 15.1.0, SVG Export Plug-In  -->
<!DOCTYPE svg PUBLIC "-//W3C//DTD SVG 1.1//EN" "http://www.w3.org/Graphics/SVG/1.1/DTD/svg11.dtd" [
	<!ENTITY ns_flows "http://ns.adobe.com/Flows/1.0/">
]>
<svg version="1.1"
	 xmlns="http://www.w3.org/2000/svg" xmlns:xlink="http://www.w3.org/1999/xlink" xmlns:a="http://ns.adobe.com/AdobeSVGViewerExtensions/3.0/"
	 x="0px" y="0px" width="101px" height="101px" viewBox="0 0 101 101" overflow="visible" enable-background="new 0 0 101 101"
	 xml:space="preserve">
<defs>
</defs>
<g>
	<defs>
		<rect id="SVGID_1_" y="0" width="100.796" height="100.796"/>
	</defs>
	<clipPath id="SVGID_2_">
		<use xlink:href="#SVGID_1_"  overflow="visible"/>
	</clipPath>
	<path clip-path="url(#SVGID_2_)" fill="#FFFFFF" d="M99.796,50.398c0,27.282-22.115,49.398-49.397,49.398S1,77.68,1,50.398
		C1,23.116,23.116,1,50.398,1S99.796,23.116,99.796,50.398"/>
	
		<circle clip-path="url(#SVGID_2_)" fill="none" stroke="#0099A8" stroke-width="2" stroke-miterlimit="10" cx="50.398" cy="50.398" r="49.398"/>
	<path clip-path="url(#SVGID_2_)" fill="#0099A8" d="M96.935,50.398c0,25.701-20.835,46.537-46.537,46.537
		c-25.701,0-46.536-20.836-46.536-46.537c0-25.701,20.835-46.537,46.536-46.537C76.1,3.861,96.935,24.697,96.935,50.398"/>
	<path clip-path="url(#SVGID_2_)" fill="#D60057" d="M74.386,50.398c0,13.248-10.74,23.988-23.988,23.988
		c-13.247,0-23.987-10.74-23.987-23.988c0-13.248,10.74-23.988,23.987-23.988C63.646,26.41,74.386,37.15,74.386,50.398"/>
	
		<circle clip-path="url(#SVGID_2_)" fill="none" stroke="#FFFFFF" stroke-width="2" stroke-miterlimit="10" cx="50.398" cy="50.398" r="23.988"/>
	<path clip-path="url(#SVGID_2_)" fill="#FFFFFF" d="M63.623,54.83v-4.99c0-1.298-0.663-1.739-1.059-1.887
		c-0.814-0.303-1.916,0.079-2.615,0.671c-0.275-0.158-0.594-0.25-0.934-0.25l-7.741,0.034c-0.318-0.172-0.6-0.312-0.784-0.368
		c-0.667-0.2-0.535-4.466-0.535-5.133s-0.866-3.4-1.333-4.133c-0.467-0.734-3.733-5.934-4.2-6.4c-0.467-0.467-0.4-0.6-0.933-0.534
		c-0.534,0.067-1,0.4-1.534,0.534c-0.533,0.133-0.318,0.956-0.133,1.4c0.333,0.8,1.01,3.773,1.2,4.2
		c0.267,0.6,0.933,0.933,0.933,1.733c0,0.894-6.266,2.933-7.066,3.6c-0.8,0.667-0.8,0.933-0.734,1.267
		c0.067,0.333,0.734,2.667,1,2.934c0.267,0.266,0.534,0.066,1.2,0c0.667-0.067,2.667-0.467,2.867,0.133
		c0.2,0.6,0.733,1.68,0.8,3.208v7.508V58.7v8.625c0,0.616,0.499,1.115,1.116,1.115h1.569c0.616,0,1.115-0.499,1.115-1.115
		c0,0,0.2-4.085,2-6.751c0.004-0.006,0.007-0.012,0.011-0.018l7.212-0.032c0.011,0.017,0.019,0.033,0.031,0.05
		c1.8,2.666,2,6.751,2,6.751c0,0.616,0.499,1.115,1.114,1.115h1.569c0.616,0,1.116-0.499,1.116-1.115v-8.477
		c0.008-0.071,0.013-0.143,0.013-0.214v-8.388c0-0.402-0.128-0.773-0.343-1.078c0.502-0.387,1.252-0.647,1.739-0.466
		c0.355,0.133,0.537,0.516,0.537,1.137v4.837c-0.498,0.848-1.121,2.387-0.989,2.696c0.2,0.466,0.399,1.333,1.134,1.333
		c0.733,0,0.533-1,1.066-1.267C64.448,57.233,63.979,55.781,63.623,54.83"/>
	<path clip-path="url(#SVGID_2_)" fill="#C51A4A" d="M50.821,47.869c-0.099,0.089-0.214,0.212-0.359,0.366
		c-0.903,0.961-3.019,3.208-6.646,2.776c-2.283-0.272-3.41-2.341-4.084-4.49l11.085-2.93l-0.256-0.967l-11.104,2.935
		c-0.16-0.618-0.292-1.221-0.411-1.769c-0.145-0.668-0.271-1.245-0.414-1.699l-0.953,0.3c0.129,0.411,0.25,0.967,0.39,1.612
		c0.651,2.996,1.636,7.524,5.627,8.001c0.363,0.043,0.712,0.063,1.049,0.063c3.484,0,5.526-2.17,6.444-3.146
		c0.125-0.133,0.232-0.247,0.301-0.309L50.821,47.869z"/>
</g>
</svg>
