<?xml version="1.0" encoding="utf-8"?>
<!-- Generator: Adobe Illustrator 15.1.0, SVG Export Plug-In  -->
<!DOCTYPE svg PUBLIC "-//W3C//DTD SVG 1.1//EN" "http://www.w3.org/Graphics/SVG/1.1/DTD/svg11.dtd" [
	<!ENTITY ns_flows "http://ns.adobe.com/Flows/1.0/">
]>
<svg version="1.1"
	 xmlns="http://www.w3.org/2000/svg" xmlns:xlink="http://www.w3.org/1999/xlink" xmlns:a="http://ns.adobe.com/AdobeSVGViewerExtensions/3.0/"
	 x="0px" y="0px" width="101px" height="101px" viewBox="0 0 101 101" overflow="visible" enable-background="new 0 0 101 101"
	 xml:space="preserve">
<defs>
</defs>
<g>
	<defs>
		<rect id="SVGID_1_" y="0" width="100.796" height="100.796"/>
	</defs>
	<clipPath id="SVGID_2_">
		<use xlink:href="#SVGID_1_"  overflow="visible"/>
	</clipPath>
	<path clip-path="url(#SVGID_2_)" fill="#FFFFFF" d="M99.796,50.398c0,27.282-22.115,49.398-49.397,49.398S1,77.68,1,50.398
		C1,23.116,23.116,1,50.398,1S99.796,23.116,99.796,50.398"/>
	
		<circle clip-path="url(#SVGID_2_)" fill="none" stroke="#003764" stroke-width="2" stroke-miterlimit="10" cx="50.398" cy="50.398" r="49.398"/>
	<path clip-path="url(#SVGID_2_)" fill="#003764" d="M96.935,50.398c0,25.701-20.835,46.537-46.537,46.537
		c-25.701,0-46.536-20.836-46.536-46.537c0-25.701,20.835-46.537,46.536-46.537C76.1,3.861,96.935,24.697,96.935,50.398"/>
	<path clip-path="url(#SVGID_2_)" fill="#C51A4A" d="M71.634,50.549c0,11.7-9.484,21.184-21.184,21.184
		c-11.7,0-21.185-9.484-21.185-21.184c0-11.7,9.485-21.184,21.185-21.184C62.149,29.365,71.634,38.849,71.634,50.549"/>
	
		<circle clip-path="url(#SVGID_2_)" fill="none" stroke="#FFFFFF" stroke-width="2" stroke-miterlimit="10" cx="50.449" cy="50.549" r="21.184"/>
	<path clip-path="url(#SVGID_2_)" fill="#FFFFFF" d="M63.108,30.292c1.704,0,3.086-1.382,3.086-3.086
		c0-1.65-1.297-2.994-2.927-3.077v-0.008H37.313v0.026c-1.522,0.19-2.7,1.486-2.7,3.059c0,1.704,1.381,3.086,3.085,3.086
		c0.795,0,1.518-0.304,2.065-0.798v41.913c-0.684,0.229-1.18,0.866-1.18,1.628c0,0.159,0.028,0.31,0.069,0.456
		c-1.143,0.012-2.065,0.939-2.065,2.085c0,1.152,0.934,2.087,2.087,2.087h23.232c1.153,0,2.087-0.935,2.087-2.087
		c0-1.146-0.923-2.073-2.065-2.085c0.04-0.146,0.069-0.297,0.069-0.456c0-0.762-0.496-1.399-1.18-1.628v-42.14
		C61.382,29.896,62.198,30.292,63.108,30.292 M60.204,74.07H40.421c-0.151,0-0.273-0.23-0.273-0.382c0-0.149,0.122-0.38,0.273-0.38
		h19.783c0.151,0,0.272,0.23,0.272,0.38C60.477,73.839,60.355,74.07,60.204,74.07 M42.5,69.404V30.885
		c0-0.53,0.45-0.959,1.005-0.959c0.555,0,1.004,0.429,1.004,0.959v38.519c0,0.529-0.449,0.959-1.004,0.959
		C42.95,70.363,42.5,69.933,42.5,69.404 M47.127,69.404V30.885c0-0.53,0.45-0.959,1.005-0.959c0.554,0,1.004,0.429,1.004,0.959
		v38.519c0,0.529-0.45,0.959-1.004,0.959C47.577,70.363,47.127,69.933,47.127,69.404 M51.754,69.404V30.885
		c0-0.53,0.45-0.959,1.004-0.959c0.556,0,1.005,0.429,1.005,0.959v38.519c0,0.529-0.449,0.959-1.005,0.959
		C52.204,70.363,51.754,69.933,51.754,69.404 M56.381,69.404V30.885c0-0.53,0.449-0.959,1.004-0.959
		c0.556,0,1.005,0.429,1.005,0.959v38.519c0,0.529-0.449,0.959-1.005,0.959C56.83,70.363,56.381,69.933,56.381,69.404
		 M60.649,27.817H40.096c-0.151,0-0.273-0.23-0.273-0.38c0-0.151,0.122-0.38,0.273-0.38h20.553c0.149,0,0.271,0.229,0.271,0.38
		C60.921,27.587,60.799,27.817,60.649,27.817"/>
</g>
</svg>
