<?xml version="1.0" encoding="utf-8"?>
<!-- Generator: Adobe Illustrator 15.1.0, SVG Export Plug-In  -->
<!DOCTYPE svg PUBLIC "-//W3C//DTD SVG 1.1//EN" "http://www.w3.org/Graphics/SVG/1.1/DTD/svg11.dtd" [
	<!ENTITY ns_flows "http://ns.adobe.com/Flows/1.0/">
]>
<svg version="1.1"
	 xmlns="http://www.w3.org/2000/svg" xmlns:xlink="http://www.w3.org/1999/xlink" xmlns:a="http://ns.adobe.com/AdobeSVGViewerExtensions/3.0/"
	 x="0px" y="0px" width="101px" height="101px" viewBox="0 0.001 101 101"
	 overflow="visible" enable-background="new 0 0.001 101 101" xml:space="preserve">
<defs>
</defs>
<g>
	<defs>
		<rect id="SVGID_1_" y="0.001" width="100.796" height="100.796"/>
	</defs>
	<clipPath id="SVGID_2_">
		<use xlink:href="#SVGID_1_"  overflow="visible"/>
	</clipPath>
	<path clip-path="url(#SVGID_2_)" fill="#FFFFFF" d="M99.796,50.398c0,27.282-22.115,49.398-49.397,49.398S1,77.681,1,50.398
		C1,23.117,23.116,1,50.398,1S99.796,23.117,99.796,50.398"/>
	
		<circle clip-path="url(#SVGID_2_)" fill="none" stroke="#823133" stroke-width="2" stroke-miterlimit="10" cx="50.398" cy="50.398" r="49.398"/>
	<path clip-path="url(#SVGID_2_)" fill="#823133" d="M96.935,50.398c0,25.701-20.835,46.537-46.537,46.537
		c-25.701,0-46.536-20.836-46.536-46.537S24.697,3.861,50.397,3.861C76.1,3.861,96.935,24.697,96.935,50.398"/>
	<path clip-path="url(#SVGID_2_)" fill="#FF8300" d="M74.386,50.398c0,13.248-10.74,23.988-23.988,23.988
		c-13.247,0-23.987-10.74-23.987-23.988S37.151,26.41,50.397,26.41C63.646,26.41,74.386,37.15,74.386,50.398"/>
	
		<circle clip-path="url(#SVGID_2_)" fill="none" stroke="#FFFFFF" stroke-width="2" stroke-miterlimit="10" cx="50.398" cy="50.398" r="23.988"/>
	<polygon clip-path="url(#SVGID_2_)" fill="#FFFFFF" points="43.117,56.333 43.845,69.05 56.777,69.05 57.68,56.333 	"/>
	<polygon clip-path="url(#SVGID_2_)" fill="#FFFFFF" points="40.938,53.603 41.332,57.264 59.465,57.264 59.858,53.603 	"/>
	<path clip-path="url(#SVGID_2_)" fill="#FFFFFF" d="M52.871,34.924c0,2.795-2.699,5.062-2.699,5.062s-2.701-2.268-2.701-5.062
		c0-2.797,2.701-5.062,2.701-5.062S52.871,32.127,52.871,34.924"/>
	<path clip-path="url(#SVGID_2_)" fill="#FFFFFF" d="M47.364,39.703c2.18,1.751,2.256,5.275,2.256,5.275s-3.457,0.686-5.637-1.065
		s-2.257-5.274-2.257-5.274S45.184,37.952,47.364,39.703"/>
	<path clip-path="url(#SVGID_2_)" fill="#FFFFFF" d="M53.162,39.703c-2.18,1.751-2.256,5.275-2.256,5.275s3.457,0.686,5.638-1.065
		c2.18-1.751,2.257-5.274,2.257-5.274S55.343,37.952,53.162,39.703"/>
	<path clip-path="url(#SVGID_2_)" fill="#FFFFFF" d="M47.634,46.588c2.18,1.752,2.256,5.275,2.256,5.275s-3.457,0.686-5.637-1.065
		s-2.257-5.274-2.257-5.274S45.454,44.838,47.634,46.588"/>
	<path clip-path="url(#SVGID_2_)" fill="#FFFFFF" d="M53.433,46.588c-2.181,1.752-2.256,5.275-2.256,5.275s3.457,0.686,5.637-1.065
		s2.257-5.274,2.257-5.274S55.612,44.838,53.433,46.588"/>
</g>
</svg>
